<svg width="742" height="419" viewBox="0 0 742 419" fill="none" xmlns="http://www.w3.org/2000/svg">
<path d="M0 417.985H97.2316V296.85L130.184 226.416L156.87 297.946V417.985H174.042V346.318L210.243 303.564V417.985H235.885V239.434L279.048 272.184V417.985H295.06V183.937L348.084 120.492V246.971H386.606V417.985H345.416V346.181H409.463V246.697L426.055 139.676L442.879 247.656V417.985H464.229V43.6175H518.414V248.615H541.735V167.219L583.506 117.888V416.751H517.253V377.835H618.546V307.949H658.46V417.985H742" stroke="#C6CADA" stroke-miterlimit="10"/>
<path d="M251.925 10.6548V10.1548H251.425H209.881V1.1749H531.218L546.703 27.9105L531.888 10.3326L531.738 10.1548H531.506H263.762H263.262V10.6548V417.972H251.925V10.6548Z" stroke="#C6CADA"/>
</svg>
