<svg width="19" height="18" viewBox="0 0 19 18" fill="none" xmlns="http://www.w3.org/2000/svg">
<path d="M15.9801 10.2312C15.9012 10.2315 15.8231 10.2162 15.7501 10.1861C15.6772 10.1561 15.6109 10.1119 15.5551 10.0561C15.4994 10.0004 15.4552 9.93409 15.4251 9.86115C15.3951 9.78821 15.3798 9.71005 15.3801 9.63117V6.47997H12.2289C12.0698 6.47997 11.9172 6.41675 11.8046 6.30423C11.6921 6.19171 11.6289 6.0391 11.6289 5.87997C11.6289 5.72084 11.6921 5.56823 11.8046 5.4557C11.9172 5.34318 12.0698 5.27997 12.2289 5.27997H15.9801C16.1392 5.27997 16.2918 5.34318 16.4044 5.4557C16.5169 5.56823 16.5801 5.72084 16.5801 5.87997V9.63117C16.5804 9.71005 16.5651 9.78821 16.5351 9.86115C16.505 9.93409 16.4609 10.0004 16.4051 10.0561C16.3493 10.1119 16.283 10.1561 16.2101 10.1861C16.1372 10.2162 16.059 10.2315 15.9801 10.2312V10.2312Z" fill="white"/>
<path d="M9.62019 13.068C9.54133 13.0683 9.46319 13.0529 9.39028 13.0229C9.31737 12.9928 9.25114 12.9486 9.19539 12.8928L2.59539 6.30479C2.48273 6.19213 2.41943 6.03932 2.41943 5.87999C2.41943 5.72066 2.48273 5.56786 2.59539 5.45519C2.70806 5.34253 2.86086 5.27924 3.02019 5.27924C3.17952 5.27924 3.33233 5.34253 3.44499 5.45519L9.62019 11.6208L15.5554 5.67359C15.6684 5.56413 15.8199 5.50343 15.9772 5.50457C16.1345 5.50571 16.2851 5.5686 16.3965 5.67969C16.5079 5.79078 16.5712 5.94119 16.5728 6.09851C16.5744 6.25583 16.5141 6.40748 16.405 6.52079L10.033 12.8928C9.92335 13.0026 9.77532 13.0654 9.62019 13.068Z" fill="white"/>
</svg>
