<svg width="18" height="18" viewBox="0 0 18 18" fill="none" xmlns="http://www.w3.org/2000/svg">
<path d="M13.8001 16.0799H6.1201C5.45195 16.0792 4.81134 15.8135 4.33889 15.3411C3.86644 14.8686 3.60073 14.228 3.6001 13.5599V3.95986C3.6001 3.80073 3.66331 3.64812 3.77583 3.5356C3.88836 3.42308 4.04097 3.35986 4.2001 3.35986C4.35923 3.35986 4.51184 3.42308 4.62436 3.5356C4.73688 3.64812 4.8001 3.80073 4.8001 3.95986V13.5599C4.80073 13.9098 4.94001 14.2451 5.18742 14.4925C5.43483 14.74 5.77021 14.8792 6.1201 14.8799H13.2001V5.99986H9.8137C9.65457 5.99986 9.50195 5.93665 9.38943 5.82413C9.27691 5.71161 9.2137 5.55899 9.2137 5.39986C9.2137 5.24073 9.27691 5.08812 9.38943 4.9756C9.50195 4.86308 9.65457 4.79986 9.8137 4.79986H13.8001C13.9592 4.79986 14.1118 4.86308 14.2244 4.9756C14.3369 5.08812 14.4001 5.24073 14.4001 5.39986V15.4799C14.4001 15.639 14.3369 15.7916 14.2244 15.9041C14.1118 16.0166 13.9592 16.0799 13.8001 16.0799Z" fill="#C6CADA"/>
<path d="M12.3601 5.99992H5.6401C5.09906 5.99992 4.58017 5.78499 4.1976 5.40242C3.81503 5.01985 3.6001 4.50096 3.6001 3.95992C3.6001 3.41888 3.81503 2.9 4.1976 2.51742C4.58017 2.13485 5.09906 1.91992 5.6401 1.91992L12.3601 1.91992C12.5192 1.91992 12.6718 1.98314 12.7844 2.09566C12.8969 2.20818 12.9601 2.36079 12.9601 2.51992V5.39992C12.9601 5.55905 12.8969 5.71166 12.7844 5.82419C12.6718 5.93671 12.5192 5.99992 12.3601 5.99992ZM5.6401 3.11992C5.41732 3.11992 5.20366 3.20842 5.04613 3.36595C4.8886 3.52348 4.8001 3.73714 4.8001 3.95992C4.8001 4.1827 4.8886 4.39636 5.04613 4.55389C5.20366 4.71142 5.41732 4.79992 5.6401 4.79992H11.7601V3.11992H5.6401Z" fill="#C6CADA"/>
<path d="M11.4 9.43901H6.6C6.44087 9.43901 6.28826 9.3758 6.17574 9.26328C6.06321 9.15076 6 8.99814 6 8.83901C6 8.67988 6.06321 8.52727 6.17574 8.41475C6.28826 8.30223 6.44087 8.23901 6.6 8.23901H11.4C11.5591 8.23901 11.7117 8.30223 11.8243 8.41475C11.9368 8.52727 12 8.67988 12 8.83901C12 8.99814 11.9368 9.15076 11.8243 9.26328C11.7117 9.3758 11.5591 9.43901 11.4 9.43901Z" fill="#C6CADA"/>
<path d="M11.4 12.6407H6.6C6.44087 12.6407 6.28826 12.5775 6.17574 12.4649C6.06321 12.3524 6 12.1998 6 12.0407C6 11.8815 6.06321 11.7289 6.17574 11.6164C6.28826 11.5039 6.44087 11.4407 6.6 11.4407H11.4C11.5591 11.4407 11.7117 11.5039 11.8243 11.6164C11.9368 11.7289 12 11.8815 12 12.0407C12 12.1998 11.9368 12.3524 11.8243 12.4649C11.7117 12.5775 11.5591 12.6407 11.4 12.6407Z" fill="#C6CADA"/>
</svg>
