<svg width="18" height="18" viewBox="0 0 18 18" fill="none" xmlns="http://www.w3.org/2000/svg">
<path d="M12.6814 16.08C12.2793 16.0804 11.8823 15.9902 11.5198 15.816C9.49375 14.8421 7.64756 13.5315 6.05984 11.94C4.46838 10.3523 3.15779 8.50609 2.18384 6.48C1.94286 5.97337 1.86492 5.40448 1.96078 4.85171C2.05663 4.29895 2.32155 3.78951 2.71904 3.3936L4.01504 2.0952C4.12793 1.98296 4.28065 1.91998 4.43984 1.92C4.59903 1.91998 4.75175 1.98296 4.86464 2.0952L7.95104 5.184C8.00684 5.23953 8.05112 5.30554 8.08134 5.37823C8.11155 5.45093 8.12711 5.52887 8.12711 5.6076C8.12711 5.68632 8.11155 5.76427 8.08134 5.83697C8.05112 5.90966 8.00684 5.97567 7.95104 6.0312L6.83744 7.1448C7.32475 7.96997 7.9142 8.73037 8.59184 9.408C9.26897 10.0862 10.0294 10.6757 10.855 11.1624L11.9686 10.0488C12.0242 9.993 12.0902 9.94872 12.1629 9.9185C12.2356 9.88828 12.3135 9.87273 12.3922 9.87273C12.471 9.87273 12.5489 9.88828 12.6216 9.9185C12.6943 9.94872 12.7603 9.993 12.8158 10.0488L15.9046 13.1352C16.0163 13.2484 16.0789 13.401 16.0789 13.56C16.0789 13.719 16.0163 13.8716 15.9046 13.9848L14.6062 15.2808C14.3536 15.5339 14.0536 15.7348 13.7234 15.8719C13.3931 16.0091 13.039 16.0798 12.6814 16.08ZM4.43984 3.36L3.56624 4.2408C3.34466 4.46154 3.19686 4.74547 3.14314 5.05359C3.08942 5.36171 3.13243 5.6789 3.26624 5.9616C4.18138 7.86461 5.41241 9.59876 6.90704 11.0904C8.39927 12.586 10.1343 13.8179 12.0382 14.7336C12.3211 14.8675 12.6385 14.9103 12.9467 14.8561C13.255 14.8019 13.5388 14.6535 13.759 14.4312L14.6398 13.56L12.4006 11.3208L11.3902 12.3312C11.2984 12.4253 11.1782 12.4865 11.0481 12.5056C10.918 12.5247 10.7852 12.5005 10.6702 12.4368C9.59292 11.8565 8.60644 11.1215 7.74224 10.2552C6.87521 9.39162 6.14012 8.40503 5.56064 7.3272C5.49692 7.21219 5.47275 7.07944 5.49183 6.94936C5.51091 6.81928 5.57218 6.69906 5.66624 6.6072L6.67664 5.5944L4.43984 3.36Z" fill="white"/>
</svg>
