<svg width="18" height="18" viewBox="0 0 18 18" fill="none" xmlns="http://www.w3.org/2000/svg">
<path d="M7.20019 13.8001C7.04144 13.7991 6.88955 13.7352 6.77779 13.6225L2.09539 8.94249C1.98273 8.82983 1.91943 8.67702 1.91943 8.51769C1.91943 8.35836 1.98273 8.20556 2.09539 8.09289C2.20806 7.98023 2.36086 7.91694 2.52019 7.91694C2.67952 7.91694 2.83233 7.98023 2.94499 8.09289L7.20019 12.3505L15.0554 4.49529C15.1681 4.38263 15.3209 4.31934 15.4802 4.31934C15.6395 4.31934 15.7923 4.38263 15.905 4.49529C16.0177 4.60796 16.0809 4.76076 16.0809 4.92009C16.0809 5.07942 16.0177 5.23223 15.905 5.34489L7.62499 13.6225C7.56937 13.6786 7.5032 13.7232 7.4303 13.7537C7.35741 13.7841 7.2792 13.7999 7.20019 13.8001Z" fill="#45BB82"/>
</svg>
