<svg width="48" height="47" viewBox="0 0 48 47" fill="none" xmlns="http://www.w3.org/2000/svg">
<path d="M24 19.75C29.376 19.75 33.75 15.376 33.75 10C33.75 4.624 29.376 0.25 24 0.25C18.624 0.25 14.25 4.624 14.25 10C14.25 15.376 18.624 19.75 24 19.75ZM24 1.75C28.5487 1.75 32.25 5.45125 32.25 10C32.25 14.5487 28.5487 18.25 24 18.25C19.4513 18.25 15.75 14.5487 15.75 10C15.75 5.45125 19.4513 1.75 24 1.75Z" fill="#272C33"/>
<path d="M10.5 27.25C5.124 27.25 0.75 31.624 0.75 37C0.75 42.376 5.124 46.75 10.5 46.75C15.876 46.75 20.25 42.376 20.25 37C20.25 31.624 15.876 27.25 10.5 27.25ZM10.5 45.25C5.95125 45.25 2.25 41.5487 2.25 37C2.25 32.4513 5.95125 28.75 10.5 28.75C15.0487 28.75 18.75 32.4513 18.75 37C18.75 41.5487 15.0487 45.25 10.5 45.25Z" fill="#272C33"/>
<path d="M37.5 27.25C32.124 27.25 27.75 31.624 27.75 37C27.75 42.376 32.124 46.75 37.5 46.75C42.876 46.75 47.25 42.376 47.25 37C47.25 31.624 42.876 27.25 37.5 27.25ZM37.5 45.25C32.9513 45.25 29.25 41.5487 29.25 37C29.25 32.4513 32.9513 28.75 37.5 28.75C42.0487 28.75 45.75 32.4513 45.75 37C45.75 41.5487 42.0487 45.25 37.5 45.25Z" fill="#272C33"/>
<path d="M37.5 34.75C36.2595 34.75 35.25 35.7595 35.25 37C35.25 38.2405 36.2595 39.25 37.5 39.25C38.7405 39.25 39.75 38.2405 39.75 37C39.75 35.7595 38.7405 34.75 37.5 34.75ZM37.5 37.75C37.086 37.75 36.75 37.414 36.75 37C36.75 36.586 37.086 36.25 37.5 36.25C37.914 36.25 38.25 36.586 38.25 37C38.25 37.414 37.914 37.75 37.5 37.75Z" fill="#272C33"/>
<path d="M32.25 34.75C31.0095 34.75 30 35.7595 30 37C30 38.2405 31.0095 39.25 32.25 39.25C33.4905 39.25 34.5 38.2405 34.5 37C34.5 35.7595 33.4905 34.75 32.25 34.75ZM32.25 37.75C31.836 37.75 31.5 37.414 31.5 37C31.5 36.586 31.836 36.25 32.25 36.25C32.664 36.25 33 36.586 33 37C33 37.414 32.664 37.75 32.25 37.75Z" fill="#272C33"/>
<path d="M40.5 37C40.5 38.2405 41.5095 39.25 42.75 39.25C43.9905 39.25 45 38.2405 45 37C45 35.7595 43.9905 34.75 42.75 34.75C41.5095 34.75 40.5 35.7595 40.5 37ZM43.5 37C43.5 37.414 43.164 37.75 42.75 37.75C42.336 37.75 42 37.414 42 37C42 36.586 42.336 36.25 42.75 36.25C43.164 36.25 43.5 36.586 43.5 37Z" fill="#272C33"/>
<path d="M26.625 12.25C27.8655 12.25 28.875 11.2405 28.875 10C28.875 8.7595 27.8655 7.75 26.625 7.75C25.3845 7.75 24.375 8.7595 24.375 10C24.375 11.2405 25.3845 12.25 26.625 12.25ZM26.625 9.25C27.039 9.25 27.375 9.586 27.375 10C27.375 10.414 27.039 10.75 26.625 10.75C26.211 10.75 25.875 10.414 25.875 10C25.875 9.586 26.211 9.25 26.625 9.25Z" fill="#272C33"/>
<path d="M21.375 12.25C22.6155 12.25 23.625 11.2405 23.625 10C23.625 8.7595 22.6155 7.75 21.375 7.75C20.1345 7.75 19.125 8.7595 19.125 10C19.125 11.2405 20.1345 12.25 21.375 12.25ZM21.375 9.25C21.789 9.25 22.125 9.586 22.125 10C22.125 10.414 21.789 10.75 21.375 10.75C20.961 10.75 20.625 10.414 20.625 10C20.625 9.586 20.961 9.25 21.375 9.25Z" fill="#272C33"/>
<path d="M10.5 34.75C9.2595 34.75 8.25 35.7595 8.25 37C8.25 38.2405 9.2595 39.25 10.5 39.25C11.7405 39.25 12.75 38.2405 12.75 37C12.75 35.7595 11.7405 34.75 10.5 34.75ZM10.5 37.75C10.086 37.75 9.75 37.414 9.75 37C9.75 36.586 10.086 36.25 10.5 36.25C10.914 36.25 11.25 36.586 11.25 37C11.25 37.414 10.914 37.75 10.5 37.75Z" fill="#272C33"/>
<path d="M13.1993 11.3499L12.2985 10.1499C7.3425 13.8729 4.5 19.5587 4.5 25.7499C4.5 26.0109 4.50525 26.2696 4.51575 26.5284L6.01425 26.4714C6.00525 26.2322 6 25.9914 6 25.7499C6 20.0349 8.62425 14.7864 13.1993 11.3499Z" fill="#272C33"/>
<path d="M19.6791 43.2288L19.3198 44.6845C20.8423 45.0595 22.4166 45.25 23.9998 45.25C25.5831 45.25 27.1573 45.0595 28.6791 44.6845L28.3198 43.2288C25.5111 43.9203 22.4886 43.9203 19.6791 43.2288Z" fill="#272C33"/>
<path d="M43.484 26.5284C43.4945 26.2696 43.4998 26.0109 43.4998 25.7499C43.4998 19.5587 40.6573 13.8729 35.702 10.1499L34.8013 11.3499C39.3755 14.7864 41.9998 20.0349 41.9998 25.7499C41.9998 25.9914 41.9945 26.2322 41.9855 26.4714L43.484 26.5284Z" fill="#272C33"/>
</svg>
