<svg width="48" height="49" viewBox="0 0 48 49" fill="none" xmlns="http://www.w3.org/2000/svg">
<path d="M24 20.75C29.376 20.75 33.75 16.376 33.75 11C33.75 5.624 29.376 1.25 24 1.25C18.624 1.25 14.25 5.624 14.25 11C14.25 16.376 18.624 20.75 24 20.75ZM24 2.75C28.5487 2.75 32.25 6.45125 32.25 11C32.25 15.5487 28.5487 19.25 24 19.25C19.4513 19.25 15.75 15.5487 15.75 11C15.75 6.45125 19.4513 2.75 24 2.75Z" stroke="#272C33"  stroke-width="1"/>
<path d="M10.5 28.25C5.124 28.25 0.75 32.624 0.75 38C0.75 43.376 5.124 47.75 10.5 47.75C15.876 47.75 20.25 43.376 20.25 38C20.25 32.624 15.876 28.25 10.5 28.25ZM10.5 46.25C5.95125 46.25 2.25 42.5487 2.25 38C2.25 33.4513 5.95125 29.75 10.5 29.75C15.0487 29.75 18.75 33.4513 18.75 38C18.75 42.5487 15.0487 46.25 10.5 46.25Z" fill="#272C33"/>
<path d="M37.5 28.25C32.124 28.25 27.75 32.624 27.75 38C27.75 43.376 32.124 47.75 37.5 47.75C42.876 47.75 47.25 43.376 47.25 38C47.25 32.624 42.876 28.25 37.5 28.25ZM37.5 46.25C32.9513 46.25 29.25 42.5487 29.25 38C29.25 33.4513 32.9513 29.75 37.5 29.75C42.0487 29.75 45.75 33.4513 45.75 38C45.75 42.5487 42.0487 46.25 37.5 46.25Z" stroke="#272C33"  stroke-width="1"/>
<path d="M37.5 35.75C36.2595 35.75 35.25 36.7595 35.25 38C35.25 39.2405 36.2595 40.25 37.5 40.25C38.7405 40.25 39.75 39.2405 39.75 38C39.75 36.7595 38.7405 35.75 37.5 35.75ZM37.5 38.75C37.086 38.75 36.75 38.414 36.75 38C36.75 37.586 37.086 37.25 37.5 37.25C37.914 37.25 38.25 37.586 38.25 38C38.25 38.414 37.914 38.75 37.5 38.75Z" stroke="#272C33"  stroke-width="1"/>
<path d="M32.25 35.75C31.0095 35.75 30 36.7595 30 38C30 39.2405 31.0095 40.25 32.25 40.25C33.4905 40.25 34.5 39.2405 34.5 38C34.5 36.7595 33.4905 35.75 32.25 35.75ZM32.25 38.75C31.836 38.75 31.5 38.414 31.5 38C31.5 37.586 31.836 37.25 32.25 37.25C32.664 37.25 33 37.586 33 38C33 38.414 32.664 38.75 32.25 38.75Z" stroke="#272C33"  stroke-width="1"/>
<path d="M40.5 38C40.5 39.2405 41.5095 40.25 42.75 40.25C43.9905 40.25 45 39.2405 45 38C45 36.7595 43.9905 35.75 42.75 35.75C41.5095 35.75 40.5 36.7595 40.5 38ZM43.5 38C43.5 38.414 43.164 38.75 42.75 38.75C42.336 38.75 42 38.414 42 38C42 37.586 42.336 37.25 42.75 37.25C43.164 37.25 43.5 37.586 43.5 38Z" stroke="#272C33"  stroke-width="1"/>
	<path d="M26.625 13.25C27.8655 13.25 28.875 12.2405 28.875 11C28.875 9.7595 27.8655 8.75 26.625 8.75C25.3845 8.75 24.375 9.7595 24.375 11C24.375 12.2405 25.3845 13.25 26.625 13.25ZM26.625 10.25C27.039 10.25 27.375 10.586 27.375 11C27.375 11.414 27.039 11.75 26.625 11.75C26.211 11.75 25.875 11.414 25.875 11C25.875 10.586 26.211 10.25 26.625 10.25Z" fill="#272C33" />
	<path d="M21.375 13.25C22.6155 13.25 23.625 12.2405 23.625 11C23.625 9.7595 22.6155 8.75 21.375 8.75C20.1345 8.75 19.125 9.7595 19.125 11C19.125 12.2405 20.1345 13.25 21.375 13.25ZM21.375 10.25C21.789 10.25 22.125 10.586 22.125 11C22.125 11.414 21.789 11.75 21.375 11.75C20.961 11.75 20.625 11.414 20.625 11C20.625 10.586 20.961 10.25 21.375 10.25Z" fill="#272C33" />
	<path d="M10.5 35.75C9.2595 35.75 8.25 36.7595 8.25 38C8.25 39.2405 9.2595 40.25 10.5 40.25C11.7405 40.25 12.75 39.2405 12.75 38C12.75 36.7595 11.7405 35.75 10.5 35.75ZM10.5 38.75C10.086 38.75 9.75 38.414 9.75 38C9.75 37.586 10.086 37.25 10.5 37.25C10.914 37.25 11.25 37.586 11.25 38C11.25 38.414 10.914 38.75 10.5 38.75Z" fill="#272C33" />
	<path d="M13.1993 12.3499L12.2985 11.1499C7.3425 14.8729 4.5 20.5587 4.5 26.7499C4.5 27.0109 4.50525 27.2696 4.51575 27.5284L6.01425 27.4714C6.00525 27.2322 6 26.9914 6 26.7499C6 21.0349 8.62425 15.7864 13.1993 12.3499Z" fill="#272C33" />
	<path d="M19.6791 44.2288L19.3198 45.6845C20.8423 46.0595 22.4166 46.25 23.9998 46.25C25.5831 46.25 27.1573 46.0595 28.6791 45.6845L28.3198 44.2288C25.5111 44.9203 22.4886 44.9203 19.6791 44.2288Z" fill="#272C33" />
	<path d="M43.484 27.5284C43.4945 27.2696 43.4998 27.0109 43.4998 26.7499C43.4998 20.5587 40.6573 14.8729 35.702 11.1499L34.8013 12.3499C39.3755 15.7864 41.9998 21.0349 41.9998 26.7499C41.9998 26.9914 41.9945 27.2322 41.9855 27.4714L43.484 27.5284Z" fill="#272C33" />
</svg>
