<svg width="48" height="49" viewBox="0 0 48 49" fill="none" xmlns="http://www.w3.org/2000/svg">
	<path d="M35.0625 46.3438H0.9375C0.375 46.3438 0 45.9688 0 45.5V3.5C0 3.03125 0.375 2.65625 0.9375 2.65625H35.0625C35.625 2.65625 36 3.03125 36 3.5V45.5C36 45.9688 35.625 46.3438 35.0625 46.3438ZM1.125 45.2188H34.7812V3.78125H1.125V45.2188Z" stroke="#272C33" stroke-width="1" />
	<path d="M35.4375 15.3125C35.25 15.3125 35.0625 15.3125 34.9688 15.2188L23.5312 3.59375C23.25 3.40625 23.25 3.03125 23.5312 2.84375C23.7188 2.5625 24.0938 2.5625 24.2812 2.84375L35.8125 14.375C36 14.5625 36 14.9375 35.8125 15.2188C35.7188 15.3125 35.5312 15.3125 35.4375 15.3125Z" stroke="#272C33" stroke-width="1" />
	<path d="M30.8438 42.7812H5.15625C4.875 42.7812 4.59375 42.5 4.59375 42.125V14.375C4.59375 14 4.875 13.8125 5.15625 13.8125H30.8438C31.125 13.8125 31.4062 14 31.4062 14.375V21.3125C31.4062 21.6875 31.125 21.875 30.8438 21.875C30.4688 21.875 30.2812 21.6875 30.2812 21.3125V14.9375H5.71875V41.5625H30.2812V26.6562C30.2812 26.2812 30.4688 26.0938 30.8438 26.0938C31.125 26.0938 31.4062 26.2812 31.4062 26.6562V42.125C31.4062 42.5 31.125 42.7812 30.8438 42.7812Z" stroke="#272C33" stroke-width="1" />
	<path d="M22.125 20.5625C21.75 20.5625 21.5625 20.2812 21.5625 19.9062V14.375C21.5625 14 21.75 13.8125 22.125 13.8125C22.4062 13.8125 22.6875 14 22.6875 14.375V19.9062C22.6875 20.2812 22.4062 20.5625 22.125 20.5625Z" stroke="#272C33" stroke-width="1" />
	<path d="M22.125 42.7812C21.75 42.7812 21.5625 42.5 21.5625 42.125V24.9688C21.5625 24.5938 21.75 24.4062 22.125 24.4062C22.4062 24.4062 22.6875 24.5938 22.6875 24.9688V42.125C22.6875 42.5 22.4062 42.7812 22.125 42.7812Z" stroke="#272C33" stroke-width="1" />
	<path d="M11.5312 30.5938H5.15625C4.875 30.5938 4.59375 30.3125 4.59375 30.0312C4.59375 29.6562 4.875 29.375 5.15625 29.375H11.5312C11.9062 29.375 12.0938 29.6562 12.0938 30.0312C12.0938 30.3125 11.9062 30.5938 11.5312 30.5938Z" stroke="#272C33" stroke-width="1" />
	<path d="M22.125 30.5938H15.8438C15.5625 30.5938 15.2812 30.3125 15.2812 30.0312C15.2812 29.6562 15.5625 29.375 15.8438 29.375H22.125C22.4062 29.375 22.6875 29.6562 22.6875 30.0312C22.6875 30.3125 22.4062 30.5938 22.125 30.5938Z" stroke="#272C33" stroke-width="1" />
	<path d="M30.8438 34.9062H26.0625C25.6875 34.9062 25.5 34.625 25.5 34.25C25.5 33.9688 25.6875 33.6875 26.0625 33.6875H30.8438C31.125 33.6875 31.4062 33.9688 31.4062 34.25C31.4062 34.625 31.125 34.9062 30.8438 34.9062Z" stroke="#272C33" stroke-width="1" />
	<path d="M43.5938 46.3438C43.3125 46.3438 43.125 46.25 43.0312 45.9688L39.1875 37.5312C39.1875 37.4375 39.0938 37.3438 39.0938 37.3438V7.0625C39.0938 4.625 41.1562 2.65625 43.5938 2.65625C46.0312 2.65625 48 4.625 48 7.0625V37.3438C48 37.3438 48 37.4375 47.9062 37.5312L44.0625 45.9688C43.9688 46.25 43.7812 46.3438 43.5938 46.3438ZM40.3125 37.1562L43.5938 44.375L46.875 37.1562V7.0625C46.875 5.28125 45.375 3.78125 43.5938 3.78125C41.7188 3.78125 40.3125 5.28125 40.3125 7.0625V37.1562Z" stroke="#272C33" stroke-width="1" />
	<path d="M47.4375 11.6562H39.75C39.375 11.6562 39.0938 11.4688 39.0938 11.0938C39.0938 10.8125 39.375 10.5312 39.75 10.5312H47.4375C47.7188 10.5312 48 10.8125 48 11.0938C48 11.4688 47.7188 11.6562 47.4375 11.6562Z" stroke="#272C33" stroke-width="1" />
	<path d="M47.4375 37.9062H39.75C39.375 37.9062 39.0938 37.625 39.0938 37.3438C39.0938 36.9688 39.375 36.6875 39.75 36.6875H47.4375C47.7188 36.6875 48 36.9688 48 37.3438C48 37.625 47.7188 37.9062 47.4375 37.9062Z" stroke="#272C33" stroke-width="1" />
	<path d="M43.5938 34.625C43.2188 34.625 43.0312 34.4375 43.0312 34.0625V14.2812C43.0312 14 43.2188 13.7188 43.5938 13.7188C43.875 13.7188 44.1562 14 44.1562 14.2812V34.0625C44.1562 34.4375 43.875 34.625 43.5938 34.625Z" stroke="#272C33" stroke-width="1" />
</svg>
