<svg width="48" height="53" viewBox="0 0 48 53" fill="none" xmlns="http://www.w3.org/2000/svg">
<path d="M18.3002 6.4677H11.3454C10.957 6.4677 10.6421 6.12009 10.6421 5.69112C10.6421 5.26216 10.957 4.91455 11.3454 4.91455H18.3002C18.6887 4.91455 19.0036 5.26216 19.0036 5.69112C19.0036 6.12009 18.6887 6.4677 18.3002 6.4677Z" fill="#272C33"/>
<path d="M18.3002 11.1376H11.3454C10.957 11.1376 10.6421 10.79 10.6421 10.361C10.6421 9.93208 10.957 9.58447 11.3454 9.58447H18.3002C18.6887 9.58447 19.0036 9.93208 19.0036 10.361C19.0036 10.79 18.6887 11.1376 18.3002 11.1376Z" fill="#272C33"/>
<path d="M41.7092 15.7383V11.4372C41.7092 10.5302 41.3893 9.67757 40.8084 9.03609L33.5255 0.994682C32.9447 0.353195 32.1724 0 31.351 0H10.1249C8.01062 0 6.29059 1.8992 6.29059 4.23379V15.7383C4.58734 15.7864 3.21484 17.3302 3.21484 19.2222V49.5137C3.21484 51.4361 4.63122 53 6.37216 53H41.6276C43.3685 53 44.7849 51.4361 44.7849 49.5137C44.7849 48.1061 44.7849 20.6309 44.7849 19.2222C44.7849 17.3302 43.4124 15.7863 41.7092 15.7383ZM39.3079 9.57571H35.4646C34.1259 9.57571 33.0368 8.37328 33.0368 6.89518V2.65145L39.3079 9.57571ZM6.29059 17.2936V19.5878C6.29059 20.0168 6.6055 20.3644 6.99391 20.3644C7.38231 20.3644 7.69722 20.0168 7.69722 19.5878V4.23379C7.69722 2.75569 8.78631 1.55315 10.1249 1.55315H31.351C31.4457 1.55315 31.5387 1.5636 31.6302 1.58058V6.89518C31.6302 9.22956 33.3503 11.1289 35.4646 11.1289H40.2778C40.2932 11.23 40.3026 11.3327 40.3026 11.4372V24.4343C40.3026 24.8633 40.6175 25.2109 41.0059 25.2109C41.3943 25.2109 41.7092 24.8633 41.7092 24.4343V17.2936C42.6366 17.3411 43.3784 18.1867 43.3784 19.2222V27.8752C42.877 27.5048 42.2748 27.2885 41.6277 27.2885H20.2342C19.5414 27.2885 18.9127 26.8364 18.6328 26.1367C18.2606 25.535 17.8214 22.442 15.0976 22.442H6.37216C5.725 22.442 5.12284 22.6584 4.62147 23.0287V19.2222C4.62147 18.1867 5.36322 17.3412 6.29059 17.2936ZM43.3783 49.5137C43.3783 50.5796 42.5928 51.4469 41.6276 51.4469H6.37216C5.40681 51.4469 4.62147 50.5796 4.62147 49.5137V25.9281C4.62147 24.8622 5.40691 23.995 6.37216 23.995H15.0976C16.7291 23.995 16.9058 25.9806 17.3462 26.7644C17.8511 28.0262 18.9847 28.8415 20.2342 28.8415H41.6275C42.5928 28.8415 43.3782 29.7088 43.3782 30.7747V49.5137H43.3783Z" fill="#272C33"/>
</svg>
