<svg width="48" height="49" viewBox="0 0 48 49" fill="none" xmlns="http://www.w3.org/2000/svg">
<path d="M41.276 28.0625C41.7611 25.7123 41.7611 23.2878 41.276 20.9375L44.8048 17.0825C44.8997 16.9792 44.9637 16.8514 44.9895 16.7135C45.0154 16.5756 45.0021 16.4332 44.951 16.3025C44.1208 14.1758 42.9713 12.188 41.5423 10.4075C41.4544 10.2979 41.3375 10.2152 41.2049 10.1688C41.0723 10.1224 40.9293 10.1142 40.7923 10.145L35.6923 11.27C33.8976 9.67745 31.7993 8.46438 29.5235 7.7038L27.9523 2.7313C27.9097 2.59782 27.8306 2.47894 27.7238 2.38813C27.6171 2.29733 27.4871 2.23824 27.3485 2.21755C25.0938 1.87801 22.8008 1.87801 20.546 2.21755C20.4045 2.23908 20.2721 2.30066 20.1645 2.39502C20.0568 2.48937 19.9784 2.61257 19.9385 2.75005L18.5585 7.62505H15.6523C15.4698 6.91805 15.0356 6.30191 14.4313 5.8921C13.827 5.48229 13.0939 5.30695 12.3695 5.39896C11.6452 5.49096 10.9792 5.84399 10.4966 6.39187C10.0139 6.93975 9.74756 7.64487 9.74756 8.37505C9.74756 9.10523 10.0139 9.81034 10.4966 10.3582C10.9792 10.9061 11.6452 11.2591 12.3695 11.3511C13.0939 11.4431 13.827 11.2678 14.4313 10.858C15.0356 10.4482 15.4698 9.83204 15.6523 9.12505H19.1248C19.2876 9.12481 19.4458 9.07164 19.5757 8.97355C19.7056 8.87546 19.8 8.73778 19.8448 8.5813L21.2473 3.6313C23.0449 3.40092 24.8646 3.40092 26.6623 3.6313L28.211 8.5288C28.2476 8.64465 28.3118 8.74988 28.398 8.83546C28.4842 8.92103 28.5899 8.98438 28.706 9.02005C31.0374 9.74134 33.1765 10.9782 34.9648 12.6388C35.0535 12.7214 35.1609 12.7812 35.2778 12.8132C35.3947 12.8452 35.5176 12.8484 35.636 12.8225L40.6535 11.6975C41.7598 13.1419 42.6737 14.7239 43.3723 16.4038L39.9035 20.195C39.8223 20.2845 39.7638 20.3922 39.7331 20.5091C39.7024 20.6259 39.7004 20.7485 39.7273 20.8663C40.2745 23.2452 40.2745 25.7174 39.7273 28.0963C39.7004 28.2141 39.7024 28.3367 39.7331 28.4535C39.7638 28.5704 39.8223 28.6781 39.9035 28.7675L43.3723 32.5588C42.6737 34.2387 41.7598 35.8207 40.6535 37.265L35.6248 36.1738C35.5064 36.1479 35.3835 36.1511 35.2666 36.1831C35.1497 36.2151 35.0423 36.275 34.9535 36.3576C33.1653 38.0182 31.0262 39.255 28.6948 39.9763C28.5787 40.012 28.4729 40.0753 28.3867 40.1609C28.3005 40.2465 28.2363 40.3517 28.1998 40.4676L26.651 45.3651C24.8534 45.5953 23.0337 45.5953 21.236 45.3651L19.8335 40.4151C19.7887 40.2611 19.6956 40.1256 19.5681 40.0284C19.4405 39.9312 19.2851 39.8775 19.1248 39.875H15.6523C15.4698 39.1681 15.0356 38.5519 14.4313 38.1421C13.827 37.7323 13.0939 37.557 12.3695 37.649C11.6452 37.741 10.9792 38.094 10.4966 38.6419C10.0139 39.1898 9.74756 39.8949 9.74756 40.625C9.74756 41.3552 10.0139 42.0603 10.4966 42.6082C10.9792 43.1561 11.6452 43.5091 12.3695 43.6011C13.0939 43.6931 13.827 43.5178 14.4313 43.108C15.0356 42.6982 15.4698 42.082 15.6523 41.375H18.5585L19.9385 46.25C19.9781 46.3887 20.0568 46.5131 20.1652 46.6082C20.2736 46.7033 20.4071 46.7651 20.5498 46.7863C22.8045 47.1273 25.0976 47.1273 27.3523 46.7863C27.4909 46.7656 27.6209 46.7065 27.7276 46.6157C27.8343 46.5249 27.9134 46.406 27.956 46.2725L29.5273 41.2925C31.803 40.532 33.9013 39.3189 35.696 37.7263L40.796 38.8513C40.9331 38.8822 41.0761 38.8739 41.2087 38.8275C41.3413 38.7811 41.4582 38.6984 41.546 38.5888C42.9751 36.8083 44.1245 34.8205 44.9548 32.6938C45.0058 32.5631 45.0191 32.4207 44.9933 32.2829C44.9674 32.145 44.9034 32.0171 44.8085 31.9138L41.276 28.0625ZM12.7498 9.87505C12.4531 9.87505 12.1631 9.78707 11.9164 9.62225C11.6698 9.45743 11.4775 9.22316 11.364 8.94907C11.2504 8.67498 11.2207 8.37338 11.2786 8.08241C11.3365 7.79144 11.4794 7.52417 11.6891 7.31439C11.8989 7.10461 12.1662 6.96175 12.4572 6.90387C12.7481 6.84599 13.0497 6.8757 13.3238 6.98923C13.5979 7.10276 13.8322 7.29502 13.997 7.54169C14.1618 7.78837 14.2498 8.07838 14.2498 8.37505C14.2498 8.77287 14.0918 9.1544 13.8105 9.43571C13.5292 9.71701 13.1476 9.87505 12.7498 9.87505ZM12.7498 42.125C12.4531 42.125 12.1631 42.0371 11.9164 41.8723C11.6698 41.7074 11.4775 41.4732 11.364 41.1991C11.2504 40.925 11.2207 40.6234 11.2786 40.3324C11.3365 40.0414 11.4794 39.7742 11.6891 39.5644C11.8989 39.3546 12.1662 39.2118 12.4572 39.1539C12.7481 39.096 13.0497 39.1257 13.3238 39.2392C13.5979 39.3528 13.8322 39.545 13.997 39.7917C14.1618 40.0384 14.2498 40.3284 14.2498 40.625C14.2498 41.0229 14.0918 41.4044 13.8105 41.6857C13.5292 41.967 13.1476 42.125 12.7498 42.125Z" fill="#272C33"/>
<path d="M23.801 32.75C25.9891 32.7699 28.0954 31.9198 29.6566 30.3867C31.2179 28.8536 32.1062 26.763 32.126 24.575C32.1459 22.387 31.2958 20.2806 29.7627 18.7194C28.2296 17.1582 26.1391 16.2699 23.951 16.25H7.4023C7.21975 15.543 6.78562 14.9269 6.18129 14.5171C5.57696 14.1072 4.84391 13.9319 4.11955 14.0239C3.39519 14.1159 2.72925 14.469 2.24655 15.0168C1.76386 15.5647 1.49756 16.2698 1.49756 17C1.49756 17.7302 1.76386 18.4353 2.24655 18.9832C2.72925 19.5311 3.39519 19.8841 4.11955 19.9761C4.84391 20.0681 5.57696 19.8928 6.18129 19.483C6.78562 19.0731 7.21975 18.457 7.4023 17.75H19.181C18.1804 18.426 17.3407 19.314 16.7218 20.3509C16.1029 21.3879 15.7198 22.5484 15.5998 23.75H13.7773C13.5948 23.043 13.1606 22.4269 12.5563 22.0171C11.952 21.6072 11.2189 21.4319 10.4945 21.5239C9.77018 21.6159 9.10425 21.969 8.62155 22.5168C8.13886 23.0647 7.87256 23.7698 7.87256 24.5C7.87256 25.2302 8.13886 25.9353 8.62155 26.4832C9.10425 27.0311 9.77018 27.3841 10.4945 27.4761C11.2189 27.5681 11.952 27.3928 12.5563 26.983C13.1606 26.5731 13.5948 25.957 13.7773 25.25H16.3123C16.5112 25.25 16.702 25.171 16.8426 25.0303C16.9833 24.8897 17.0623 24.6989 17.0623 24.5C17.0623 23.165 17.4582 21.8599 18.1999 20.7499C18.9416 19.6399 19.9958 18.7747 21.2292 18.2638C22.4626 17.7529 23.8198 17.6193 25.1292 17.8797C26.4385 18.1402 27.6413 18.783 28.5853 19.727C29.5293 20.671 30.1721 21.8738 30.4326 23.1831C30.693 24.4925 30.5594 25.8497 30.0485 27.0831C29.5376 28.3165 28.6724 29.3707 27.5624 30.1124C26.4524 30.8541 25.1473 31.25 23.8123 31.25H7.4023C7.21975 30.543 6.78562 29.9269 6.18129 29.5171C5.57696 29.1072 4.84391 28.9319 4.11955 29.0239C3.39519 29.1159 2.72925 29.469 2.24655 30.0168C1.76386 30.5647 1.49756 31.2698 1.49756 32C1.49756 32.7302 1.76386 33.4353 2.24655 33.9832C2.72925 34.5311 3.39519 34.8841 4.11955 34.9761C4.84391 35.0681 5.57696 34.8928 6.18129 34.483C6.78562 34.0731 7.21975 33.457 7.4023 32.75H23.801ZM4.4998 18.5C4.20312 18.5 3.91311 18.412 3.66644 18.2472C3.41977 18.0824 3.22751 17.8481 3.11398 17.574C3.00045 17.2999 2.97074 16.9983 3.02862 16.7074C3.0865 16.4164 3.22936 16.1491 3.43914 15.9393C3.64891 15.7296 3.91619 15.5867 4.20716 15.5288C4.49813 15.471 4.79973 15.5007 5.07382 15.6142C5.34791 15.7277 5.58218 15.92 5.747 16.1667C5.91182 16.4133 5.9998 16.7033 5.9998 17C5.9998 17.3978 5.84176 17.7794 5.56046 18.0607C5.27915 18.342 4.89762 18.5 4.4998 18.5ZM10.8748 26C10.5781 26 10.2881 25.912 10.0414 25.7472C9.79477 25.5824 9.60251 25.3481 9.48898 25.074C9.37544 24.7999 9.34574 24.4983 9.40362 24.2074C9.4615 23.9164 9.60436 23.6491 9.81414 23.4393C10.0239 23.2296 10.2912 23.0867 10.5822 23.0288C10.8731 22.971 11.1747 23.0007 11.4488 23.1142C11.7229 23.2277 11.9572 23.42 12.122 23.6667C12.2868 23.9133 12.3748 24.2033 12.3748 24.5C12.3748 24.8978 12.2168 25.2794 11.9355 25.5607C11.6542 25.842 11.2726 26 10.8748 26ZM4.4998 33.5C4.20312 33.5 3.91311 33.412 3.66644 33.2472C3.41977 33.0824 3.22751 32.8481 3.11398 32.574C3.00045 32.2999 2.97074 31.9983 3.02862 31.7074C3.0865 31.4164 3.22936 31.1491 3.43914 30.9393C3.64891 30.7296 3.91619 30.5867 4.20716 30.5288C4.49813 30.471 4.79973 30.5007 5.07382 30.6142C5.34791 30.7277 5.58218 30.92 5.747 31.1667C5.91182 31.4133 5.9998 31.7033 5.9998 32C5.9998 32.3978 5.84176 32.7794 5.56046 33.0607C5.27915 33.342 4.89762 33.5 4.4998 33.5Z" fill="#272C33"/>
</svg>
