<svg width="48" height="49" viewBox="0 0 48 49" fill="none" xmlns="http://www.w3.org/2000/svg">
<g clip-path="url(#clip0_726_2897)">
	<path d="M24.0001 48.406C10.8237 48.406 0.0942383 37.6766 0.0942383 24.5001C0.0942383 18.1472 2.5413 12.1707 7.01189 7.70012C7.3413 7.37071 7.85894 7.37071 8.18836 7.70012C8.51777 8.02953 8.51777 8.54718 8.18836 8.87659C4.04718 13.0178 1.7413 18.5707 1.7413 24.5001C1.7413 36.7825 11.7178 46.7589 24.0001 46.7589C36.2825 46.7589 46.2589 36.7825 46.2589 24.5001C46.2589 12.5001 36.706 2.71189 24.8472 2.28836V10.006C24.8472 10.4766 24.4707 10.8531 24.0001 10.8531C23.5295 10.8531 23.1531 10.4766 23.1531 10.006V1.4413C23.1531 0.970709 23.5295 0.594238 24.0001 0.594238C37.1766 0.594238 47.906 11.3237 47.906 24.5001C47.906 37.6766 37.1766 48.406 24.0001 48.406Z" stroke="#272C33" stroke-width="1" />
	<path d="M24.3766 29.8648C24.2355 29.8648 24.0943 29.8648 23.9531 29.8648C22.6825 29.7236 21.506 29.0177 20.7531 27.8413L11.6237 14.1471C11.1531 13.4413 11.1061 12.9236 11.5296 12.5001C11.9061 12.1236 12.4708 12.1236 13.1766 12.5942L26.8708 21.7236C28.0472 22.5236 28.7531 23.653 28.8943 24.9236C29.0355 26.1942 28.5178 27.4648 27.5296 28.5001C26.6355 29.3942 25.5531 29.8648 24.3766 29.8648ZM14.4943 15.4648L22.1178 26.9471C22.6355 27.7001 23.3413 28.1707 24.1413 28.2648C24.9413 28.3589 25.7413 28.0295 26.3531 27.3707C27.0119 26.7119 27.2943 25.9119 27.2472 25.1589C27.1531 24.3589 26.7296 23.653 25.9296 23.1354L14.4943 15.4648Z" stroke="#272C33" stroke-width="1" />
</g>
<defs>
<clipPath id="clip0_726_2897">
<rect width="48" height="48" fill="white" transform="translate(0 0.5)"/>
</clipPath>
</defs>
</svg>
