<svg width="742" height="441" viewBox="0 0 742 441" fill="none" xmlns="http://www.w3.org/2000/svg">
<circle opacity="0.55" cx="545.163" cy="158.242" r="158.242" fill="#F5F7F8"/>
<path d="M0 439.985H97.2316V318.85L130.184 248.416L156.87 319.946V439.985H174.042V368.318L210.243 325.564V439.985H235.885V261.434L279.048 294.184V439.985H295.06V205.937L348.084 142.492V268.971H386.606V439.985H345.416V368.181H409.463V268.697L426.055 161.676L442.879 269.656V439.985H464.229V65.6175H518.414V270.615H541.735V189.219L583.506 139.888V438.751H517.253V399.835H618.546V329.949H658.46V439.985H742" stroke="#C6CADA" stroke-miterlimit="10"/>
<path d="M251.925 32.6548V32.1548H251.425H209.881V23.1749H531.218L546.703 49.9105L531.888 32.3326L531.738 32.1548H531.506H263.762H263.262V32.6548V439.972H251.925V32.6548Z" stroke="#C6CADA"/>
</svg>
