<svg width="24" height="24" viewBox="0 0 24 24" fill="none" xmlns="http://www.w3.org/2000/svg">
<path d="M20.6401 12.8417H3.36006C3.14789 12.8417 2.9444 12.7574 2.79437 12.6074C2.64434 12.4574 2.56006 12.2539 2.56006 12.0417C2.56006 11.8295 2.64434 11.626 2.79437 11.476C2.9444 11.326 3.14789 11.2417 3.36006 11.2417H20.6401C20.8522 11.2417 21.0557 11.326 21.2057 11.476C21.3558 11.626 21.4401 11.8295 21.4401 12.0417C21.4401 12.2539 21.3558 12.4574 21.2057 12.6074C21.0557 12.7574 20.8522 12.8417 20.6401 12.8417Z" fill="#C6CADA"/>
<path d="M10.1216 19.6032C10.0165 19.6036 9.91231 19.5831 9.8151 19.543C9.71788 19.5029 9.62957 19.444 9.55525 19.3696L2.79364 12.608C2.64396 12.4575 2.55994 12.2539 2.55994 12.0416C2.55994 11.8293 2.64396 11.6257 2.79364 11.4752L9.55525 4.71361C9.70546 4.5634 9.9092 4.479 10.1216 4.479C10.3341 4.479 10.5378 4.5634 10.688 4.71361C10.8383 4.86383 10.9227 5.06757 10.9227 5.28001C10.9227 5.49246 10.8383 5.6962 10.688 5.84641L4.48004 12.0416L10.688 18.24C10.8002 18.3519 10.8766 18.4946 10.9076 18.6499C10.9386 18.8053 10.9228 18.9664 10.8621 19.1128C10.8014 19.2591 10.6987 19.3842 10.5669 19.472C10.435 19.5599 10.2801 19.6067 10.1216 19.6064V19.6032Z" fill="#C6CADA"/>
</svg>
