<svg width="18" height="18" viewBox="0 0 18 18" fill="none" xmlns="http://www.w3.org/2000/svg">
<path d="M13.5599 15.12H4.43992C3.77177 15.1194 3.13117 14.8537 2.65871 14.3812C2.18626 13.9088 1.92056 13.2682 1.91992 12.6L1.91992 5.4C1.92056 4.73185 2.18626 4.09125 2.65871 3.61879C3.13117 3.14634 3.77177 2.88064 4.43992 2.88L13.5599 2.88C14.2281 2.88064 14.8687 3.14634 15.3411 3.61879C15.8136 4.09125 16.0793 4.73185 16.0799 5.4V12.6C16.0793 13.2682 15.8136 13.9088 15.3411 14.3812C14.8687 14.8537 14.2281 15.1194 13.5599 15.12ZM4.43992 4.08C4.09003 4.08064 3.75465 4.21991 3.50724 4.46732C3.25983 4.71473 3.12056 5.05011 3.11992 5.4V12.6C3.12056 12.9499 3.25983 13.2853 3.50724 13.5327C3.75465 13.7801 4.09003 13.9194 4.43992 13.92H13.5599C13.9098 13.9194 14.2452 13.7801 14.4926 13.5327C14.74 13.2853 14.8793 12.9499 14.8799 12.6V5.4C14.8793 5.05011 14.74 4.71473 14.4926 4.46732C14.2452 4.21991 13.9098 4.08064 13.5599 4.08H4.43992Z" fill="white"/>
<path d="M8.99981 9.7224C8.56696 9.72366 8.14116 9.61286 7.76381 9.4008L2.26061 6.3072C2.12185 6.22891 2.01988 6.0987 1.97712 5.94522C1.93436 5.79174 1.95432 5.62756 2.03261 5.4888C2.11091 5.35004 2.24111 5.24806 2.39459 5.2053C2.54807 5.16255 2.71225 5.18251 2.85101 5.2608L8.35181 8.3568C8.54974 8.46649 8.77232 8.52404 8.99861 8.52404C9.22491 8.52404 9.44748 8.46649 9.64541 8.3568L15.1486 5.2608C15.2173 5.22203 15.293 5.19718 15.3713 5.18766C15.4496 5.17814 15.529 5.18413 15.605 5.2053C15.681 5.22648 15.7521 5.26241 15.8142 5.31105C15.8763 5.35969 15.9282 5.42009 15.967 5.4888C16.0058 5.55751 16.0306 5.63318 16.0402 5.71149C16.0497 5.7898 16.0437 5.86923 16.0225 5.94522C16.0013 6.02122 15.9654 6.0923 15.9168 6.15441C15.8681 6.21652 15.8077 6.26843 15.739 6.3072L10.2358 9.4008C9.85847 9.61286 9.43266 9.72366 8.99981 9.7224Z" fill="white"/>
</svg>
