<svg width="18" height="18" viewBox="0 0 18 18" fill="none" xmlns="http://www.w3.org/2000/svg">
<path d="M8.99993 16.0799C7.59963 16.0799 6.23079 15.6647 5.06649 14.8867C3.90219 14.1088 2.99473 13.003 2.45886 11.7093C1.92299 10.4156 1.78278 8.99207 2.05597 7.61869C2.32915 6.2453 3.00345 4.98377 3.99361 3.99361C4.98377 3.00345 6.2453 2.32915 7.61869 2.05597C8.99207 1.78278 10.4156 1.92299 11.7093 2.45886C13.003 2.99473 14.1088 3.90219 14.8867 5.06649C15.6647 6.23079 16.0799 7.59963 16.0799 8.99993C16.078 10.8771 15.3315 12.6768 14.0041 14.0041C12.6768 15.3315 10.8771 16.078 8.99993 16.0799ZM8.99993 3.11993C7.83697 3.11993 6.70013 3.46478 5.73317 4.11088C4.76621 4.75699 4.01256 5.67532 3.56751 6.74975C3.12247 7.82418 3.00603 9.00645 3.23291 10.1471C3.45979 11.2877 4.0198 12.3354 4.84214 13.1577C5.66447 13.98 6.71219 14.5401 7.85279 14.7669C8.9934 14.9938 10.1757 14.8774 11.2501 14.4323C12.3245 13.9873 13.2429 13.2336 13.889 12.2667C14.5351 11.2997 14.8799 10.1629 14.8799 8.99993C14.878 7.44104 14.2579 5.94654 13.1556 4.84424C12.0533 3.74194 10.5588 3.12183 8.99993 3.11993Z" fill="#45BB82"/>
<path d="M12.36 9.5999H5.64004C5.48091 9.5999 5.3283 9.53669 5.21577 9.42417C5.10325 9.31164 5.04004 9.15903 5.04004 8.9999C5.04004 8.84077 5.10325 8.68816 5.21577 8.57564C5.3283 8.46312 5.48091 8.3999 5.64004 8.3999H12.36C12.5192 8.3999 12.6718 8.46312 12.7843 8.57564C12.8968 8.68816 12.96 8.84077 12.96 8.9999C12.96 9.15903 12.8968 9.31164 12.7843 9.42417C12.6718 9.53669 12.5192 9.5999 12.36 9.5999Z" fill="#45BB82"/>
<path d="M8.9999 12.96C8.84077 12.96 8.68816 12.8968 8.57564 12.7843C8.46312 12.6718 8.3999 12.5192 8.3999 12.36V5.64004C8.3999 5.48091 8.46312 5.3283 8.57564 5.21577C8.68816 5.10325 8.84077 5.04004 8.9999 5.04004C9.15903 5.04004 9.31164 5.10325 9.42417 5.21577C9.53669 5.3283 9.5999 5.48091 9.5999 5.64004V12.36C9.5999 12.5192 9.53669 12.6718 9.42417 12.7843C9.31164 12.8968 9.15903 12.96 8.9999 12.96Z" fill="#45BB82"/>
</svg>
