<svg width="763" height="675" viewBox="0 0 763 675" fill="none" xmlns="http://www.w3.org/2000/svg">
<circle opacity="0.55" cx="276.5" cy="208.5" r="149.5" fill="#F5F7F8"/>
<path d="M376.5 311C376.5 381.97 319.191 439.5 248.5 439.5C177.809 439.5 120.5 381.97 120.5 311C120.5 240.03 177.809 182.5 248.5 182.5C319.191 182.5 376.5 240.03 376.5 311Z" stroke="#C6CADA"/>
<path d="M72 135L383 446" stroke="#C6CADA"/>
<path d="M362.685 525.5L548 214.976L733.315 525.5H362.685Z" stroke="#C6CADA"/>
<rect x="75.5" y="387.5" width="461" height="202" stroke="#C6CADA"/>
<rect x="476.5" y="120.5" width="200" height="554" stroke="#C6CADA"/>
<rect x="0.5" y="486.5" width="157" height="157" stroke="#C6CADA"/>
<path d="M616.136 11.9435V11.4435H616.636H666.5V0.5H39.4259L20.2852 33.5165L38.7556 11.6211L38.9055 11.4435H39.1378H601.859H602.359V11.9435V609.5H616.136V11.9435Z" stroke="#C6CADA"/>
</svg>
