<svg display="none" xmlns="http://www.w3.org/2000/svg">
	<symbol id="svg-book" viewBox="0 0 18 18">
		<g>
			<path d="M13.8 16.08H6.12a2.523 2.523 0 01-2.52-2.52v-9.6a.6.6 0 111.2 0v9.6a1.322 1.322 0 001.32 1.32h7.08V6H9.814a.6.6 0 110-1.2H13.8a.6.6 0 01.6.6v10.08a.6.6 0 01-.6.6z" />
			<path d="M12.36 6H5.64a2.04 2.04 0 010-4.08h6.72a.6.6 0 01.6.6V5.4a.6.6 0 01-.6.6zM5.64 3.12a.84.84 0 000 1.68h6.12V3.12H5.64zm5.76 6.319H6.6a.6.6 0 110-1.2h4.8a.6.6 0 010 1.2zm0 3.201H6.6a.6.6 0 110-1.2h4.8a.6.6 0 010 1.2z" />
		</g>
	</symbol>
	<symbol id="svg-arrow-right" viewBox="0 0 24 24">
		<g>
			<path d="M20.6401 12.8417H3.36006C3.14789 12.8417 2.9444 12.7574 2.79437 12.6074C2.64434 12.4574 2.56006 12.2539 2.56006 12.0417C2.56006 11.8295 2.64434 11.626 2.79437 11.476C2.9444 11.326 3.14789 11.2417 3.36006 11.2417H20.6401C20.8522 11.2417 21.0557 11.326 21.2057 11.476C21.3558 11.626 21.4401 11.8295 21.4401 12.0417C21.4401 12.2539 21.3558 12.4574 21.2057 12.6074C21.0557 12.7574 20.8522 12.8417 20.6401 12.8417Z"  />
			<path d="M13.8784 19.6032C13.7732 19.6036 13.6691 19.5831 13.5719 19.543C13.4746 19.5029 13.3863 19.444 13.312 19.3696C13.1631 19.2187 13.0796 19.0152 13.0796 18.8032C13.0796 18.5912 13.1631 18.3877 13.312 18.2368L19.52 12.0416L13.312 5.84641C13.1618 5.6962 13.0774 5.49246 13.0774 5.28001C13.0774 5.06757 13.1618 4.86383 13.312 4.71361C13.4622 4.5634 13.666 4.479 13.8784 4.479C14.0908 4.479 14.2946 4.5634 14.4448 4.71361L21.2064 11.4752C21.3553 11.6261 21.4388 11.8296 21.4388 12.0416C21.4388 12.2536 21.3553 12.4571 21.2064 12.608L14.4448 19.3696C14.3705 19.444 14.2822 19.5029 14.185 19.543C14.0877 19.5831 13.9836 19.6036 13.8784 19.6032Z" />
		</g>
	</symbol>
</svg>