<svg display="none" xmlns="http://www.w3.org/2000/svg">
	<symbol id="svg-book" viewBox="0 0 18 18">
		<g>
			<path d="M13.8 16.08H6.12a2.523 2.523 0 01-2.52-2.52v-9.6a.6.6 0 111.2 0v9.6a1.322 1.322 0 001.32 1.32h7.08V6H9.814a.6.6 0 110-1.2H13.8a.6.6 0 01.6.6v10.08a.6.6 0 01-.6.6z" />
			<path d="M12.36 6H5.64a2.04 2.04 0 010-4.08h6.72a.6.6 0 01.6.6V5.4a.6.6 0 01-.6.6zM5.64 3.12a.84.84 0 000 1.68h6.12V3.12H5.64zm5.76 6.319H6.6a.6.6 0 110-1.2h4.8a.6.6 0 010 1.2zm0 3.201H6.6a.6.6 0 110-1.2h4.8a.6.6 0 010 1.2z" />
		</g>
	</symbol>
	<symbol id="svg-arrow-right" viewBox="0 0 24 24">
		<g>
			<path d="M20.6401 12.8417H3.36006C3.14789 12.8417 2.9444 12.7574 2.79437 12.6074C2.64434 12.4574 2.56006 12.2539 2.56006 12.0417C2.56006 11.8295 2.64434 11.626 2.79437 11.476C2.9444 11.326 3.14789 11.2417 3.36006 11.2417H20.6401C20.8522 11.2417 21.0557 11.326 21.2057 11.476C21.3558 11.626 21.4401 11.8295 21.4401 12.0417C21.4401 12.2539 21.3558 12.4574 21.2057 12.6074C21.0557 12.7574 20.8522 12.8417 20.6401 12.8417Z"  />
			<path d="M13.8784 19.6032C13.7732 19.6036 13.6691 19.5831 13.5719 19.543C13.4746 19.5029 13.3863 19.444 13.312 19.3696C13.1631 19.2187 13.0796 19.0152 13.0796 18.8032C13.0796 18.5912 13.1631 18.3877 13.312 18.2368L19.52 12.0416L13.312 5.84641C13.1618 5.6962 13.0774 5.49246 13.0774 5.28001C13.0774 5.06757 13.1618 4.86383 13.312 4.71361C13.4622 4.5634 13.666 4.479 13.8784 4.479C14.0908 4.479 14.2946 4.5634 14.4448 4.71361L21.2064 11.4752C21.3553 11.6261 21.4388 11.8296 21.4388 12.0416C21.4388 12.2536 21.3553 12.4571 21.2064 12.608L14.4448 19.3696C14.3705 19.444 14.2822 19.5029 14.185 19.543C14.0877 19.5831 13.9836 19.6036 13.8784 19.6032Z" />
		</g>
	</symbol>
	<symbol id="svg-arr" viewBox="0 0 19 18">
		<g>
			<path d="M15.9801 10.2312C15.9012 10.2315 15.8231 10.2162 15.7501 10.1861C15.6772 10.1561 15.6109 10.1119 15.5551 10.0561C15.4994 10.0004 15.4552 9.93409 15.4251 9.86115C15.3951 9.78821 15.3798 9.71005 15.3801 9.63117V6.47997H12.2289C12.0698 6.47997 11.9172 6.41675 11.8046 6.30423C11.6921 6.19171 11.6289 6.0391 11.6289 5.87997C11.6289 5.72084 11.6921 5.56823 11.8046 5.4557C11.9172 5.34318 12.0698 5.27997 12.2289 5.27997H15.9801C16.1392 5.27997 16.2918 5.34318 16.4044 5.4557C16.5169 5.56823 16.5801 5.72084 16.5801 5.87997V9.63117C16.5804 9.71005 16.5651 9.78821 16.5351 9.86115C16.505 9.93409 16.4609 10.0004 16.4051 10.0561C16.3493 10.1119 16.283 10.1561 16.2101 10.1861C16.1372 10.2162 16.059 10.2315 15.9801 10.2312V10.2312Z"  />
			<path d="M9.62019 13.068C9.54133 13.0683 9.46319 13.0529 9.39028 13.0229C9.31737 12.9928 9.25114 12.9486 9.19539 12.8928L2.59539 6.30479C2.48273 6.19213 2.41943 6.03932 2.41943 5.87999C2.41943 5.72066 2.48273 5.56786 2.59539 5.45519C2.70806 5.34253 2.86086 5.27924 3.02019 5.27924C3.17952 5.27924 3.33233 5.34253 3.44499 5.45519L9.62019 11.6208L15.5554 5.67359C15.6684 5.56413 15.8199 5.50343 15.9772 5.50457C16.1345 5.50571 16.2851 5.5686 16.3965 5.67969C16.5079 5.79078 16.5712 5.94119 16.5728 6.09851C16.5744 6.25583 16.5141 6.40748 16.405 6.52079L10.033 12.8928C9.92335 13.0026 9.77532 13.0654 9.62019 13.068Z"  />
		</g>
	</symbol>
</svg>