<svg display="none" xmlns="http://www.w3.org/2000/svg">
	<symbol id="svg-book" viewBox="0 0 18 18">
		<g>
			<path d="M13.8 16.08H6.12a2.523 2.523 0 01-2.52-2.52v-9.6a.6.6 0 111.2 0v9.6a1.322 1.322 0 001.32 1.32h7.08V6H9.814a.6.6 0 110-1.2H13.8a.6.6 0 01.6.6v10.08a.6.6 0 01-.6.6z" />
			<path d="M12.36 6H5.64a2.04 2.04 0 010-4.08h6.72a.6.6 0 01.6.6V5.4a.6.6 0 01-.6.6zM5.64 3.12a.84.84 0 000 1.68h6.12V3.12H5.64zm5.76 6.319H6.6a.6.6 0 110-1.2h4.8a.6.6 0 010 1.2zm0 3.201H6.6a.6.6 0 110-1.2h4.8a.6.6 0 010 1.2z" />
		</g>
	</symbol>
	<symbol>
		<g></g>
	</symbol>
</svg>