<svg display="none" xmlns="http://www.w3.org/2000/svg">
	<symbol id="svg-book" viewBox="0 0 18 18">
		<g>
			<path d="M13.8 16.08H6.12a2.523 2.523 0 01-2.52-2.52v-9.6a.6.6 0 111.2 0v9.6a1.322 1.322 0 001.32 1.32h7.08V6H9.814a.6.6 0 110-1.2H13.8a.6.6 0 01.6.6v10.08a.6.6 0 01-.6.6z" />
			<path d="M12.36 6H5.64a2.04 2.04 0 010-4.08h6.72a.6.6 0 01.6.6V5.4a.6.6 0 01-.6.6zM5.64 3.12a.84.84 0 000 1.68h6.12V3.12H5.64zm5.76 6.319H6.6a.6.6 0 110-1.2h4.8a.6.6 0 010 1.2zm0 3.201H6.6a.6.6 0 110-1.2h4.8a.6.6 0 010 1.2z" />
		</g>
	</symbol>
	<symbol id="svg-arrow-right" viewBox="0 0 24 24">
		<g>
			<path d="M20.6401 12.8417H3.36006C3.14789 12.8417 2.9444 12.7574 2.79437 12.6074C2.64434 12.4574 2.56006 12.2539 2.56006 12.0417C2.56006 11.8295 2.64434 11.626 2.79437 11.476C2.9444 11.326 3.14789 11.2417 3.36006 11.2417H20.6401C20.8522 11.2417 21.0557 11.326 21.2057 11.476C21.3558 11.626 21.4401 11.8295 21.4401 12.0417C21.4401 12.2539 21.3558 12.4574 21.2057 12.6074C21.0557 12.7574 20.8522 12.8417 20.6401 12.8417Z"  />
			<path d="M13.8784 19.6032C13.7732 19.6036 13.6691 19.5831 13.5719 19.543C13.4746 19.5029 13.3863 19.444 13.312 19.3696C13.1631 19.2187 13.0796 19.0152 13.0796 18.8032C13.0796 18.5912 13.1631 18.3877 13.312 18.2368L19.52 12.0416L13.312 5.84641C13.1618 5.6962 13.0774 5.49246 13.0774 5.28001C13.0774 5.06757 13.1618 4.86383 13.312 4.71361C13.4622 4.5634 13.666 4.479 13.8784 4.479C14.0908 4.479 14.2946 4.5634 14.4448 4.71361L21.2064 11.4752C21.3553 11.6261 21.4388 11.8296 21.4388 12.0416C21.4388 12.2536 21.3553 12.4571 21.2064 12.608L14.4448 19.3696C14.3705 19.444 14.2822 19.5029 14.185 19.543C14.0877 19.5831 13.9836 19.6036 13.8784 19.6032Z" />
		</g>
	</symbol>
	<symbol id="svg-arr" viewBox="0 0 19 18">
		<g>
			<path d="M15.9801 10.2312C15.9012 10.2315 15.8231 10.2162 15.7501 10.1861C15.6772 10.1561 15.6109 10.1119 15.5551 10.0561C15.4994 10.0004 15.4552 9.93409 15.4251 9.86115C15.3951 9.78821 15.3798 9.71005 15.3801 9.63117V6.47997H12.2289C12.0698 6.47997 11.9172 6.41675 11.8046 6.30423C11.6921 6.19171 11.6289 6.0391 11.6289 5.87997C11.6289 5.72084 11.6921 5.56823 11.8046 5.4557C11.9172 5.34318 12.0698 5.27997 12.2289 5.27997H15.9801C16.1392 5.27997 16.2918 5.34318 16.4044 5.4557C16.5169 5.56823 16.5801 5.72084 16.5801 5.87997V9.63117C16.5804 9.71005 16.5651 9.78821 16.5351 9.86115C16.505 9.93409 16.4609 10.0004 16.4051 10.0561C16.3493 10.1119 16.283 10.1561 16.2101 10.1861C16.1372 10.2162 16.059 10.2315 15.9801 10.2312V10.2312Z"  />
			<path d="M9.62019 13.068C9.54133 13.0683 9.46319 13.0529 9.39028 13.0229C9.31737 12.9928 9.25114 12.9486 9.19539 12.8928L2.59539 6.30479C2.48273 6.19213 2.41943 6.03932 2.41943 5.87999C2.41943 5.72066 2.48273 5.56786 2.59539 5.45519C2.70806 5.34253 2.86086 5.27924 3.02019 5.27924C3.17952 5.27924 3.33233 5.34253 3.44499 5.45519L9.62019 11.6208L15.5554 5.67359C15.6684 5.56413 15.8199 5.50343 15.9772 5.50457C16.1345 5.50571 16.2851 5.5686 16.3965 5.67969C16.5079 5.79078 16.5712 5.94119 16.5728 6.09851C16.5744 6.25583 16.5141 6.40748 16.405 6.52079L10.033 12.8928C9.92335 13.0026 9.77532 13.0654 9.62019 13.068Z"  />
		</g>
	</symbol>
	
	<symbol id="svg-check" viewBox="0 0 18 18">
		<g>
			<path d="M7.20019 13.8001C7.04144 13.7991 6.88955 13.7352 6.77779 13.6225L2.09539 8.94249C1.98273 8.82983 1.91943 8.67702 1.91943 8.51769C1.91943 8.35836 1.98273 8.20556 2.09539 8.09289C2.20806 7.98023 2.36086 7.91694 2.52019 7.91694C2.67952 7.91694 2.83233 7.98023 2.94499 8.09289L7.20019 12.3505L15.0554 4.49529C15.1681 4.38263 15.3209 4.31934 15.4802 4.31934C15.6395 4.31934 15.7923 4.38263 15.905 4.49529C16.0177 4.60796 16.0809 4.76076 16.0809 4.92009C16.0809 5.07942 16.0177 5.23223 15.905 5.34489L7.62499 13.6225C7.56937 13.6786 7.5032 13.7232 7.4303 13.7537C7.35741 13.7841 7.2792 13.7999 7.20019 13.8001Z" />
		</g>
	</symbol>
	<symbol id="svg-plus" viewBox="0 0 18 18">
		<g>
			<path d="M8.99993 16.0799C7.59963 16.0799 6.23079 15.6647 5.06649 14.8867C3.90219 14.1088 2.99473 13.003 2.45886 11.7093C1.92299 10.4156 1.78278 8.99207 2.05597 7.61869C2.32915 6.2453 3.00345 4.98377 3.99361 3.99361C4.98377 3.00345 6.2453 2.32915 7.61869 2.05597C8.99207 1.78278 10.4156 1.92299 11.7093 2.45886C13.003 2.99473 14.1088 3.90219 14.8867 5.06649C15.6647 6.23079 16.0799 7.59963 16.0799 8.99993C16.078 10.8771 15.3315 12.6768 14.0041 14.0041C12.6768 15.3315 10.8771 16.078 8.99993 16.0799ZM8.99993 3.11993C7.83697 3.11993 6.70013 3.46478 5.73317 4.11088C4.76621 4.75699 4.01256 5.67532 3.56751 6.74975C3.12247 7.82418 3.00603 9.00645 3.23291 10.1471C3.45979 11.2877 4.0198 12.3354 4.84214 13.1577C5.66447 13.98 6.71219 14.5401 7.85279 14.7669C8.9934 14.9938 10.1757 14.8774 11.2501 14.4323C12.3245 13.9873 13.2429 13.2336 13.889 12.2667C14.5351 11.2997 14.8799 10.1629 14.8799 8.99993C14.878 7.44104 14.2579 5.94654 13.1556 4.84424C12.0533 3.74194 10.5588 3.12183 8.99993 3.11993Z"  />
			<path d="M12.36 9.5999H5.64004C5.48091 9.5999 5.3283 9.53669 5.21577 9.42417C5.10325 9.31164 5.04004 9.15903 5.04004 8.9999C5.04004 8.84077 5.10325 8.68816 5.21577 8.57564C5.3283 8.46312 5.48091 8.3999 5.64004 8.3999H12.36C12.5192 8.3999 12.6718 8.46312 12.7843 8.57564C12.8968 8.68816 12.96 8.84077 12.96 8.9999C12.96 9.15903 12.8968 9.31164 12.7843 9.42417C12.6718 9.53669 12.5192 9.5999 12.36 9.5999Z"  />
			<path d="M8.9999 12.96C8.84077 12.96 8.68816 12.8968 8.57564 12.7843C8.46312 12.6718 8.3999 12.5192 8.3999 12.36V5.64004C8.3999 5.48091 8.46312 5.3283 8.57564 5.21577C8.68816 5.10325 8.84077 5.04004 8.9999 5.04004C9.15903 5.04004 9.31164 5.10325 9.42417 5.21577C9.53669 5.3283 9.5999 5.48091 9.5999 5.64004V12.36C9.5999 12.5192 9.53669 12.6718 9.42417 12.7843C9.31164 12.8968 9.15903 12.96 8.9999 12.96Z" />
		</g>
	</symbol>

	<symbol id="svg-mail"  viewBox="0 0 18 18">
		<g>
			<path d="M13.5599 15.12H4.43992C3.77177 15.1194 3.13117 14.8537 2.65871 14.3812C2.18626 13.9088 1.92056 13.2682 1.91992 12.6L1.91992 5.4C1.92056 4.73185 2.18626 4.09125 2.65871 3.61879C3.13117 3.14634 3.77177 2.88064 4.43992 2.88L13.5599 2.88C14.2281 2.88064 14.8687 3.14634 15.3411 3.61879C15.8136 4.09125 16.0793 4.73185 16.0799 5.4V12.6C16.0793 13.2682 15.8136 13.9088 15.3411 14.3812C14.8687 14.8537 14.2281 15.1194 13.5599 15.12ZM4.43992 4.08C4.09003 4.08064 3.75465 4.21991 3.50724 4.46732C3.25983 4.71473 3.12056 5.05011 3.11992 5.4V12.6C3.12056 12.9499 3.25983 13.2853 3.50724 13.5327C3.75465 13.7801 4.09003 13.9194 4.43992 13.92H13.5599C13.9098 13.9194 14.2452 13.7801 14.4926 13.5327C14.74 13.2853 14.8793 12.9499 14.8799 12.6V5.4C14.8793 5.05011 14.74 4.71473 14.4926 4.46732C14.2452 4.21991 13.9098 4.08064 13.5599 4.08H4.43992Z"  />
			<path d="M8.99981 9.7224C8.56696 9.72366 8.14116 9.61286 7.76381 9.4008L2.26061 6.3072C2.12185 6.22891 2.01988 6.0987 1.97712 5.94522C1.93436 5.79174 1.95432 5.62756 2.03261 5.4888C2.11091 5.35004 2.24111 5.24806 2.39459 5.2053C2.54807 5.16255 2.71225 5.18251 2.85101 5.2608L8.35181 8.3568C8.54974 8.46649 8.77232 8.52404 8.99861 8.52404C9.22491 8.52404 9.44748 8.46649 9.64541 8.3568L15.1486 5.2608C15.2173 5.22203 15.293 5.19718 15.3713 5.18766C15.4496 5.17814 15.529 5.18413 15.605 5.2053C15.681 5.22648 15.7521 5.26241 15.8142 5.31105C15.8763 5.35969 15.9282 5.42009 15.967 5.4888C16.0058 5.55751 16.0306 5.63318 16.0402 5.71149C16.0497 5.7898 16.0437 5.86923 16.0225 5.94522C16.0013 6.02122 15.9654 6.0923 15.9168 6.15441C15.8681 6.21652 15.8077 6.26843 15.739 6.3072L10.2358 9.4008C9.85847 9.61286 9.43266 9.72366 8.99981 9.7224Z"  />
		</g>
	</symbol>
	<symbol id="svg-call" viewBox="0 0 18 18">
		<g>
			<path d="M12.6814 16.08C12.2793 16.0804 11.8823 15.9902 11.5198 15.816C9.49375 14.8421 7.64756 13.5315 6.05984 11.94C4.46838 10.3523 3.15779 8.50609 2.18384 6.48C1.94286 5.97337 1.86492 5.40448 1.96078 4.85171C2.05663 4.29895 2.32155 3.78951 2.71904 3.3936L4.01504 2.0952C4.12793 1.98296 4.28065 1.91998 4.43984 1.92C4.59903 1.91998 4.75175 1.98296 4.86464 2.0952L7.95104 5.184C8.00684 5.23953 8.05112 5.30554 8.08134 5.37823C8.11155 5.45093 8.12711 5.52887 8.12711 5.6076C8.12711 5.68632 8.11155 5.76427 8.08134 5.83697C8.05112 5.90966 8.00684 5.97567 7.95104 6.0312L6.83744 7.1448C7.32475 7.96997 7.9142 8.73037 8.59184 9.408C9.26897 10.0862 10.0294 10.6757 10.855 11.1624L11.9686 10.0488C12.0242 9.993 12.0902 9.94872 12.1629 9.9185C12.2356 9.88828 12.3135 9.87273 12.3922 9.87273C12.471 9.87273 12.5489 9.88828 12.6216 9.9185C12.6943 9.94872 12.7603 9.993 12.8158 10.0488L15.9046 13.1352C16.0163 13.2484 16.0789 13.401 16.0789 13.56C16.0789 13.719 16.0163 13.8716 15.9046 13.9848L14.6062 15.2808C14.3536 15.5339 14.0536 15.7348 13.7234 15.8719C13.3931 16.0091 13.039 16.0798 12.6814 16.08ZM4.43984 3.36L3.56624 4.2408C3.34466 4.46154 3.19686 4.74547 3.14314 5.05359C3.08942 5.36171 3.13243 5.6789 3.26624 5.9616C4.18138 7.86461 5.41241 9.59876 6.90704 11.0904C8.39927 12.586 10.1343 13.8179 12.0382 14.7336C12.3211 14.8675 12.6385 14.9103 12.9467 14.8561C13.255 14.8019 13.5388 14.6535 13.759 14.4312L14.6398 13.56L12.4006 11.3208L11.3902 12.3312C11.2984 12.4253 11.1782 12.4865 11.0481 12.5056C10.918 12.5247 10.7852 12.5005 10.6702 12.4368C9.59292 11.8565 8.60644 11.1215 7.74224 10.2552C6.87521 9.39162 6.14012 8.40503 5.56064 7.3272C5.49692 7.21219 5.47275 7.07944 5.49183 6.94936C5.51091 6.81928 5.57218 6.69906 5.66624 6.6072L6.67664 5.5944L4.43984 3.36Z"  />
		</g>
	</symbol>
</svg>